<svg width="109" height="57" viewBox="0 0 384 87" fill="none" xmlns="http://www.w3.org/2000/svg">
<g filter="url(#filter0_d_3_3)">
<path d="M18.36 75.28C15.7147 75.28 13.1973 74.5547 10.808 73.104C8.41867 71.568 6.62667 69.264 5.432 66.192C5.00533 65.0827 4.70667 63.9307 4.536 62.736C4.36533 61.456 4.28 60.2187 4.28 59.024C4.28 57.8293 4.49333 57.232 4.92 57.232C5.432 57.232 5.688 57.5733 5.688 58.256C5.688 62.2667 6.66933 65.296 8.632 67.344C10.68 69.392 13.1973 70.416 16.184 70.416C19.1707 70.416 22.072 69.5627 24.888 67.856C27.704 66.1493 30.3067 63.9733 32.696 61.328C36.536 57.0613 39.8213 52.752 42.552 48.4C45.2827 43.9627 47.7573 39.44 49.976 34.832C52.28 30.1387 54.584 25.2747 56.888 20.24C58.0827 17.68 59.5333 15.2907 61.24 13.072C63.032 10.768 64.9947 8.93333 67.128 7.56799H63.288C62.008 7.56799 60.216 7.65333 57.912 7.824C55.6933 7.99466 53.432 8.37866 51.128 8.976C48.824 9.57333 46.904 10.5547 45.368 11.92C43.832 13.2853 43.1493 15.12 43.32 17.424C43.4053 18.1067 43.6613 19.0453 44.088 20.24C44.5147 21.3493 44.7707 22.032 44.856 22.288L43.576 23.312C43.064 22.3733 42.424 21.3067 41.656 20.112C40.888 18.832 40.1627 17.5947 39.48 16.4C38.8827 15.2053 38.5413 14.3093 38.456 13.712C38.3707 12.8587 38.4133 11.7493 38.584 10.384C38.84 9.01867 39.5227 7.824 40.632 6.8C41.912 5.69066 43.6613 4.96533 45.88 4.62399C48.184 4.28266 50.5307 4.112 52.92 4.112C55.224 4.112 57.4427 4.19733 59.576 4.368C61.7093 4.53866 63.4587 4.62399 64.824 4.62399L85.304 4.49599L83.64 6.416C82.7867 6.416 81.5493 6.50133 79.928 6.672C78.392 6.75733 76.7707 6.97066 75.064 7.312C73.016 7.65333 70.6693 8.80533 68.024 10.768C65.3787 12.6453 63.1173 15.1627 61.24 18.32L60.088 20.24C58.808 23.1413 57.3573 26.5973 55.736 30.608C54.1147 34.6187 52.28 38.8427 50.232 43.28C48.2693 47.7173 46.0933 52.0267 43.704 56.208C41.3147 60.304 38.6693 63.888 35.768 66.96C33.6347 69.264 30.9467 71.2267 27.704 72.848C24.4613 74.4693 21.3467 75.28 18.36 75.28ZM78.038 78.352C75.0513 78.352 71.894 77.8827 68.566 76.944C65.3233 76.0907 62.422 74.64 59.862 72.592C57.3873 70.544 55.7233 67.8133 54.87 64.4C54.7847 63.9733 54.6993 63.504 54.614 62.992C54.614 62.48 54.614 61.968 54.614 61.456C54.614 58.8107 55.2113 56.2507 56.406 53.776C57.6007 51.3013 59.0513 49.424 60.758 48.144H60.886C61.0567 48.144 61.27 48.3573 61.526 48.784C61.8673 49.1253 61.8673 49.3813 61.526 49.552C60.6727 50.4053 60.0327 51.3867 59.606 52.496C59.2647 53.52 59.094 54.6293 59.094 55.824C59.094 57.4453 59.35 59.1093 59.862 60.816C60.4593 62.4373 61.1847 63.8453 62.038 65.04C64.1713 68.0267 67.1153 70.416 70.87 72.208C74.71 73.9147 78.4647 74.768 82.134 74.768C87.1687 74.768 91.0513 73.2747 93.782 70.288C96.598 67.3013 98.006 63.632 98.006 59.28C98.006 56.6347 97.494 53.9893 96.47 51.344C95.1047 47.6747 93.27 44.0907 90.966 40.592C88.7473 37.008 86.6993 33.5093 84.822 30.096C83.2007 27.024 82.39 23.9093 82.39 20.752C82.39 17.424 83.414 14.224 85.462 11.152C87.51 8.42133 90.198 6.24533 93.526 4.62399C96.9393 2.91733 100.395 2.064 103.894 2.064C106.283 2.064 108.587 2.49066 110.806 3.34399C113.025 4.19733 115.03 5.60533 116.822 7.56799C117.334 8.33599 117.59 9.31733 117.59 10.512C117.59 12.2187 117.249 13.5413 116.566 14.48C115.798 15.5893 114.945 17.04 114.006 18.832C113.067 20.624 112.513 21.8613 112.342 22.544C112.171 22.6293 111.745 22.8 111.062 23.056C110.465 23.2267 110.081 23.184 109.91 22.928C110.251 22.2453 110.721 21.008 111.318 19.216C111.915 17.424 112.214 15.8027 112.214 14.352C112.214 13.4133 112.171 12.3893 112.086 11.28C112.086 10.0853 111.531 9.06133 110.422 8.208C109.398 7.26933 108.075 6.45866 106.454 5.77599C104.833 5.09333 102.87 4.752 100.566 4.752C95.8727 4.752 92.2887 6.11733 89.814 8.848C87.3393 11.5787 86.102 14.5653 86.102 17.808C86.102 19.4293 86.4433 21.0507 87.126 22.672C88.406 25.744 90.198 28.6453 92.502 31.376C94.806 34.1067 97.0673 36.9227 99.286 39.824C101.59 42.64 103.382 45.712 104.662 49.04C105.515 51.2587 105.942 53.52 105.942 55.824C105.942 59.152 105.089 62.1813 103.382 64.912C101.761 67.6427 99.542 70.032 96.726 72.08C93.9953 74.0427 91.0087 75.5787 87.766 76.688C84.5233 77.7973 81.2807 78.352 78.038 78.352ZM118.636 77.2C115.991 77.2 113.815 76.432 112.108 74.896C110.487 73.36 109.847 71.056 110.188 67.984C110.273 66.8747 110.529 65.7227 110.956 64.528C111.468 63.248 112.023 62.0107 112.62 60.816C113.132 59.6213 113.644 59.024 114.156 59.024C114.583 59.024 114.625 59.3653 114.284 60.048C113.175 62.352 112.62 64.4 112.62 66.192C112.62 68.0693 113.26 69.4773 114.54 70.416C115.905 71.3547 117.655 71.824 119.788 71.824C123.969 71.824 128.577 70.5013 133.612 67.856C138.647 65.1253 143.852 61.6693 149.228 57.488C154.604 53.2213 159.767 48.784 164.716 44.176C161.388 44.0053 158.273 43.8347 155.372 43.664C152.471 43.4933 149.911 43.408 147.692 43.408C145.815 43.408 143.553 43.5787 140.908 43.92C138.263 44.2613 136.215 45.1573 134.764 46.608C134.167 47.2053 133.612 48.1013 133.1 49.296C132.673 50.4053 132.46 51.5573 132.46 52.752C132.46 53.0933 132.46 53.4347 132.46 53.776C132.545 54.032 132.631 54.3307 132.716 54.672C132.375 54.5013 131.735 54.3733 130.796 54.288C129.943 54.1173 129.388 53.5627 129.132 52.624C129.047 52.368 129.004 51.9413 129.004 51.344C129.004 49.9787 129.516 48.8693 130.54 48.016C131.564 47.0773 132.801 46.2667 134.252 45.584C135.703 44.9013 137.025 44.304 138.22 43.792C141.036 42.5973 143.937 41.616 146.924 40.848C149.911 40.08 152.94 39.696 156.012 39.696C159.511 39.696 163.863 39.824 169.068 40.08C173.079 36.1547 176.791 32.4427 180.204 28.944C183.617 25.4453 186.391 22.544 188.524 20.24C191.511 17.0827 194.668 14.3947 197.996 12.176C201.409 9.872 204.865 8.25066 208.364 7.312H201.324C198.337 7.312 195.095 7.44 191.596 7.696C188.097 7.952 184.812 8.50666 181.74 9.36C178.668 10.2133 176.108 11.4933 174.06 13.2C172.78 14.3093 171.799 15.5893 171.116 17.04C170.519 18.4053 170.22 19.6853 170.22 20.88C170.22 22.5013 170.689 23.6107 171.628 24.208C171.713 24.208 171.756 24.2507 171.756 24.336C171.756 24.592 171.457 24.8907 170.86 25.232C170.263 25.488 169.836 25.5307 169.58 25.36C168.727 24.7627 167.959 23.568 167.276 21.776C166.679 19.8987 166.465 18.4053 166.636 17.296C167.063 14.6507 168.215 12.5173 170.092 10.896C172.055 9.18933 174.444 7.86666 177.26 6.92799C180.161 5.98933 183.191 5.34933 186.348 5.008C189.591 4.66666 192.663 4.45333 195.564 4.368C198.551 4.28266 201.068 4.24 203.116 4.24H217.068C217.239 4.24 217.281 4.28266 217.196 4.368C219.329 3.42933 221.548 2.49066 223.852 1.55199C226.241 0.61333 228.289 0.143997 229.996 0.143997C230.423 0.143997 230.849 0.271998 231.276 0.528C231.788 0.783997 232.044 1.04 232.044 1.296C232.044 1.72266 231.191 1.936 229.484 1.936C228.631 1.936 227.735 2.10666 226.796 2.448C225.943 2.70399 224.791 3.59999 223.34 5.13599C222.145 6.33066 220.652 8.25066 218.86 10.896C217.068 13.5413 215.105 16.656 212.972 20.24C210.839 23.7387 208.705 27.4933 206.572 31.504C204.439 35.4293 202.391 39.312 200.428 43.152C198.465 46.992 196.759 50.5333 195.308 53.776C195.137 54.288 194.668 55.4827 193.9 57.36C193.132 59.152 192.407 61.1573 191.724 63.376C191.041 65.5093 190.7 67.4293 190.7 69.136C190.7 71.44 191.511 72.592 193.132 72.592C193.9 72.592 194.668 72.4213 195.436 72.08C196.545 71.6533 197.697 71.0133 198.892 70.16C200.087 69.3067 201.239 68.3253 202.348 67.216C204.567 65.0827 206.444 63.0347 207.98 61.072C209.516 59.024 210.455 57.7867 210.796 57.36C211.052 56.9333 211.351 56.72 211.692 56.72C212.033 56.72 212.204 56.9333 212.204 57.36C212.204 57.616 212.076 57.9573 211.82 58.384C211.223 59.2373 210.113 60.7307 208.492 62.864C206.871 64.912 204.951 67.0027 202.732 69.136C200.599 71.2693 198.295 72.8907 195.82 74C195.052 74.3413 194.241 74.5973 193.388 74.768C192.535 75.024 191.681 75.152 190.828 75.152C189.121 75.152 187.543 74.5547 186.092 73.36C184.727 72.1653 184.044 70.2027 184.044 67.472C184.044 64.9973 184.513 62.352 185.452 59.536C186.476 56.6347 187.415 54.288 188.268 52.496C189.975 48.8267 191.98 44.7307 194.284 40.208C196.673 35.6853 199.105 31.1627 201.58 26.64C204.14 22.1173 206.487 18.0213 208.62 14.352C210.753 10.6827 212.503 7.952 213.868 6.16C212.503 6.16 210.668 6.71466 208.364 7.824C206.06 8.848 203.585 10.256 200.94 12.048C198.38 13.7547 195.991 15.76 193.772 18.064C191.127 20.7947 188.055 24.1227 184.556 28.048C181.143 31.9733 177.431 36.0693 173.42 40.336C175.383 40.4213 177.345 40.5067 179.308 40.592C181.271 40.592 183.233 40.592 185.196 40.592C186.561 40.592 188.055 40.464 189.676 40.208C191.383 39.8667 192.961 39.3547 194.412 38.672C194.412 38.672 194.156 39.1413 193.644 40.08C193.217 40.9333 192.449 41.8293 191.34 42.768C190.316 43.6213 188.908 44.1333 187.116 44.304C185.495 44.3893 183.873 44.4747 182.252 44.56C180.631 44.56 179.009 44.56 177.388 44.56C176.023 44.56 174.657 44.56 173.292 44.56C172.012 44.56 170.732 44.5173 169.452 44.432C165.527 48.528 161.431 52.5387 157.164 56.464C152.897 60.304 148.588 63.8027 144.236 66.96C139.884 70.1173 135.532 72.592 131.18 74.384C126.913 76.2613 122.732 77.2 118.636 77.2ZM216.886 77.2C214.241 77.2 212.065 76.432 210.358 74.896C208.737 73.36 208.097 71.056 208.438 67.984C208.523 66.8747 208.779 65.7227 209.206 64.528C209.718 63.248 210.273 62.0107 210.87 60.816C211.382 59.6213 211.894 59.024 212.406 59.024C212.833 59.024 212.875 59.3653 212.534 60.048C211.425 62.352 210.87 64.4 210.87 66.192C210.87 68.0693 211.51 69.4773 212.79 70.416C214.155 71.3547 215.905 71.824 218.038 71.824C222.219 71.824 226.827 70.5013 231.862 67.856C236.897 65.1253 242.102 61.6693 247.478 57.488C252.854 53.2213 258.017 48.784 262.966 44.176C259.638 44.0053 256.523 43.8347 253.622 43.664C250.721 43.4933 248.161 43.408 245.942 43.408C244.065 43.408 241.803 43.5787 239.158 43.92C236.513 44.2613 234.465 45.1573 233.014 46.608C232.417 47.2053 231.862 48.1013 231.35 49.296C230.923 50.4053 230.71 51.5573 230.71 52.752C230.71 53.0933 230.71 53.4347 230.71 53.776C230.795 54.032 230.881 54.3307 230.966 54.672C230.625 54.5013 229.985 54.3733 229.046 54.288C228.193 54.1173 227.638 53.5627 227.382 52.624C227.297 52.368 227.254 51.9413 227.254 51.344C227.254 49.9787 227.766 48.8693 228.79 48.016C229.814 47.0773 231.051 46.2667 232.502 45.584C233.953 44.9013 235.275 44.304 236.47 43.792C239.286 42.5973 242.187 41.616 245.174 40.848C248.161 40.08 251.19 39.696 254.262 39.696C257.761 39.696 262.113 39.824 267.318 40.08C271.329 36.1547 275.041 32.4427 278.454 28.944C281.867 25.4453 284.641 22.544 286.774 20.24C289.761 17.0827 292.918 14.3947 296.246 12.176C299.659 9.872 303.115 8.25066 306.614 7.312H299.574C296.587 7.312 293.345 7.44 289.846 7.696C286.347 7.952 283.062 8.50666 279.99 9.36C276.918 10.2133 274.358 11.4933 272.31 13.2C271.03 14.3093 270.049 15.5893 269.366 17.04C268.769 18.4053 268.47 19.6853 268.47 20.88C268.47 22.5013 268.939 23.6107 269.878 24.208C269.963 24.208 270.006 24.2507 270.006 24.336C270.006 24.592 269.707 24.8907 269.11 25.232C268.513 25.488 268.086 25.5307 267.83 25.36C266.977 24.7627 266.209 23.568 265.526 21.776C264.929 19.8987 264.715 18.4053 264.886 17.296C265.313 14.6507 266.465 12.5173 268.342 10.896C270.305 9.18933 272.694 7.86666 275.51 6.92799C278.411 5.98933 281.441 5.34933 284.598 5.008C287.841 4.66666 290.913 4.45333 293.814 4.368C296.801 4.28266 299.318 4.24 301.366 4.24H315.318C315.489 4.24 315.531 4.28266 315.446 4.368C317.579 3.42933 319.798 2.49066 322.102 1.55199C324.491 0.61333 326.539 0.143997 328.246 0.143997C328.673 0.143997 329.099 0.271998 329.526 0.528C330.038 0.783997 330.294 1.04 330.294 1.296C330.294 1.72266 329.441 1.936 327.734 1.936C326.881 1.936 325.985 2.10666 325.046 2.448C324.193 2.70399 323.041 3.59999 321.59 5.13599C320.395 6.33066 318.902 8.25066 317.11 10.896C315.318 13.5413 313.355 16.656 311.222 20.24C309.089 23.7387 306.955 27.4933 304.822 31.504C302.689 35.4293 300.641 39.312 298.678 43.152C296.715 46.992 295.009 50.5333 293.558 53.776C293.387 54.288 292.918 55.4827 292.15 57.36C291.382 59.152 290.657 61.1573 289.974 63.376C289.291 65.5093 288.95 67.4293 288.95 69.136C288.95 71.44 289.761 72.592 291.382 72.592C292.15 72.592 292.918 72.4213 293.686 72.08C294.795 71.6533 295.947 71.0133 297.142 70.16C298.337 69.3067 299.489 68.3253 300.598 67.216C302.817 65.0827 304.694 63.0347 306.23 61.072C307.766 59.024 308.705 57.7867 309.046 57.36C309.302 56.9333 309.601 56.72 309.942 56.72C310.283 56.72 310.454 56.9333 310.454 57.36C310.454 57.616 310.326 57.9573 310.07 58.384C309.473 59.2373 308.363 60.7307 306.742 62.864C305.121 64.912 303.201 67.0027 300.982 69.136C298.849 71.2693 296.545 72.8907 294.07 74C293.302 74.3413 292.491 74.5973 291.638 74.768C290.785 75.024 289.931 75.152 289.078 75.152C287.371 75.152 285.793 74.5547 284.342 73.36C282.977 72.1653 282.294 70.2027 282.294 67.472C282.294 64.9973 282.763 62.352 283.702 59.536C284.726 56.6347 285.665 54.288 286.518 52.496C288.225 48.8267 290.23 44.7307 292.534 40.208C294.923 35.6853 297.355 31.1627 299.83 26.64C302.39 22.1173 304.737 18.0213 306.87 14.352C309.003 10.6827 310.753 7.952 312.118 6.16C310.753 6.16 308.918 6.71466 306.614 7.824C304.31 8.848 301.835 10.256 299.19 12.048C296.63 13.7547 294.241 15.76 292.022 18.064C289.377 20.7947 286.305 24.1227 282.806 28.048C279.393 31.9733 275.681 36.0693 271.67 40.336C273.633 40.4213 275.595 40.5067 277.558 40.592C279.521 40.592 281.483 40.592 283.446 40.592C284.811 40.592 286.305 40.464 287.926 40.208C289.633 39.8667 291.211 39.3547 292.662 38.672C292.662 38.672 292.406 39.1413 291.894 40.08C291.467 40.9333 290.699 41.8293 289.59 42.768C288.566 43.6213 287.158 44.1333 285.366 44.304C283.745 44.3893 282.123 44.4747 280.502 44.56C278.881 44.56 277.259 44.56 275.638 44.56C274.273 44.56 272.907 44.56 271.542 44.56C270.262 44.56 268.982 44.5173 267.702 44.432C263.777 48.528 259.681 52.5387 255.414 56.464C251.147 60.304 246.838 63.8027 242.486 66.96C238.134 70.1173 233.782 72.592 229.43 74.384C225.163 76.2613 220.982 77.2 216.886 77.2ZM335.744 77.712C331.221 77.712 326.869 77.0293 322.688 75.664C318.592 74.384 315.264 72.208 312.704 69.136C310.144 66.064 308.864 61.9253 308.864 56.72C308.864 51.1733 309.931 45.7547 312.064 40.464C314.197 35.1733 317.056 30.2667 320.64 25.744C324.224 21.136 328.235 17.168 332.672 13.84C336.597 10.8533 341.12 8.42133 346.24 6.544C351.445 4.66666 356.608 3.728 361.728 3.728C363.861 3.728 365.867 3.89866 367.744 4.24C369.621 4.49599 371.541 5.09333 373.504 6.032C375.211 6.8 376.576 7.78133 377.6 8.976C378.624 10.0853 379.136 11.3653 379.136 12.816C379.136 12.9867 379.136 13.2 379.136 13.456C379.136 13.712 379.093 13.9253 379.008 14.096C378.667 15.4613 377.856 17.04 376.576 18.832C375.381 20.5387 374.443 22.3307 373.76 24.208C373.675 24.5493 373.205 24.848 372.352 25.104C371.499 25.2747 371.157 25.1893 371.328 24.848C372.011 23.7387 372.523 22.3733 372.864 20.752C373.291 19.1307 373.504 17.5093 373.504 15.888C373.504 14.6933 373.376 13.584 373.12 12.56C372.949 11.4507 372.608 10.512 372.096 9.744C371.243 8.208 369.92 7.14133 368.128 6.544C366.336 5.94666 364.416 5.64799 362.368 5.64799C360.405 5.64799 358.443 5.86133 356.48 6.28799C354.517 6.71466 352.811 7.184 351.36 7.696C346.411 9.488 341.675 12.304 337.152 16.144C333.141 19.6427 329.557 23.696 326.4 28.304C323.328 32.912 320.896 37.648 319.104 42.512C317.312 47.376 316.416 52.0267 316.416 56.464C316.416 60.9867 317.397 64.5707 319.36 67.216C321.323 69.8613 323.883 71.7387 327.04 72.848C330.197 73.9573 333.611 74.512 337.28 74.512C340.523 74.512 343.723 74.1707 346.88 73.488C350.123 72.8053 353.067 71.952 355.712 70.928C360.235 69.2213 364.288 67.1307 367.872 64.656C371.541 62.1813 374.955 58.9813 378.112 55.056C378.539 54.6293 378.837 54.416 379.008 54.416C379.264 54.416 379.392 54.5867 379.392 54.928C379.392 55.6107 379.051 56.4213 378.368 57.36C375.467 61.2853 372.181 64.5707 368.512 67.216C364.843 69.8613 360.917 72.0373 356.736 73.744C353.92 74.8533 350.635 75.792 346.88 76.56C343.211 77.328 339.499 77.712 335.744 77.712Z" fill="white"/>
</g>
<defs>
<filter id="filter0_d_3_3" x="0.280029" y="0.143982" width="383.112" height="86.208" filterUnits="userSpaceOnUse" color-interpolation-filters="sRGB">
<feFlood flood-opacity="0" result="BackgroundImageFix"/>
<feColorMatrix in="SourceAlpha" type="matrix" values="0 0 0 0 0 0 0 0 0 0 0 0 0 0 0 0 0 0 127 0" result="hardAlpha"/>
<feOffset dy="4"/>
<feGaussianBlur stdDeviation="2"/>
<feComposite in2="hardAlpha" operator="out"/>
<feColorMatrix type="matrix" values="0 0 0 0 0 0 0 0 0 0 0 0 0 0 0 0 0 0 0.25 0"/>
<feBlend mode="normal" in2="BackgroundImageFix" result="effect1_dropShadow_3_3"/>
<feBlend mode="normal" in="SourceGraphic" in2="effect1_dropShadow_3_3" result="shape"/>
</filter>
</defs>
</svg>
